<?xml version="1.0" ?><svg height="512px" id="Layer_1" style="enable-background:new 0 0 512 512;" version="1.1" viewBox="0 0 512 512" width="512px" xml:space="preserve" xmlns="http://www.w3.org/2000/svg" xmlns:cc="http://creativecommons.org/ns#" xmlns:dc="http://purl.org/dc/elements/1.1/" xmlns:inkscape="http://www.inkscape.org/namespaces/inkscape" xmlns:rdf="http://www.w3.org/1999/02/22-rdf-syntax-ns#" xmlns:sodipodi="http://sodipodi.sourceforge.net/DTD/sodipodi-0.dtd" xmlns:svg="http://www.w3.org/2000/svg"><defs id="defs19"/><g id="g2996" transform="translate(0.32800146,0.07000866)"><g id="g2987" style="fill:none;stroke:#44bbff;stroke-width:10.19920349000000000;stroke-miterlimit:4;stroke-opacity:1;stroke-dasharray:none" transform="matrix(0.98046874,0,0,0.98046874,4.9935963,4.9986352)"><path d="m 511.672,255.92999 c 0,141.3849 -114.61511,256 -256,256 -141.3849,0 -256.00000293,-114.6151 -256.00000293,-256 C -0.32800293,114.5451 114.2871,-0.07000732 255.672,-0.07000732 c 141.38489,0 256,114.61510732 256,255.99999732 z" id="path2989" style="fill:none;stroke:#44bbff;stroke-width:10.19920349000000000;stroke-miterlimit:4;stroke-opacity:1;stroke-dasharray:none"/></g><g id="g4138" transform="translate(-952,10)"><g id="g3002"><path d="m 1113.4996,195.75748 c 7.5615,9.273 36.4306,121.24298 46.0673,141.89813 8.4109,18.11389 31.612,42.06108 57.0548,24.9596 25.4282,-17.10209 109.9875,-91.98016 125.124,-180.40601 15.1234,-88.397931 -101.7568,-69.88034 -114.1373,7.13542 30.9434,-19.26822 47.4601,7.82896 31.6258,38.50838 -15.8057,30.64988 -30.2478,50.64006 -37.8102,50.64006 -7.5477,0 -13.3544,-20.51091 -22.0024,-56.36049 -8.9399,-37.06323 -8.8849,-103.82434 -46.0529,-96.25543 -35.0516,7.13542 -81.1182,64.19006 -81.1182,64.19006 l 11.0014,14.96328 c 0,0 22.6858,-18.54724 30.2477,-9.273 z" id="Oval-1" style="fill:#44bbff;fill-opacity:1"/></g><g id="Layer_1_1_-5"/></g></g><g id="Layer_1_1_"/></svg>